<svg width="335" height="189" viewBox="0 0 335 189" fill="none" xmlns="http://www.w3.org/2000/svg">
<rect width="335" height="188.44" rx="6" fill="#E9E9F7"/>
<path d="M215.465 51.8388H134.149C132.145 51.8388 130.613 53.3708 130.613 55.3741V68.3374H198.966C200.969 68.3374 202.501 69.8695 202.501 71.8728V121.487H215.464C217.468 121.487 219 119.955 219 117.952V55.3741C219 53.3708 217.468 51.8388 215.465 51.8388Z" fill="#DEDEF2"/>
<path d="M199.673 67.6305H131.32H119.535C117.532 67.6305 116 69.1626 116 71.1659V133.626C116 135.629 117.532 137.161 119.535 137.161H199.673C201.676 137.161 203.208 135.629 203.208 133.626V120.78V71.1659C203.208 69.1626 201.676 67.6305 199.673 67.6305Z" fill="#CECEE6"/>
<path d="M152 97C156.381 97 160 93.381 160 89C160 84.619 156.381 81 152 81C147.619 81 144 84.619 144 89C144 93.381 147.619 97 152 97Z" fill="#E9E9F7"/>
<path d="M170.918 93.3216C170.328 92.3787 169.268 91.7895 168.207 91.6718C167.029 91.554 165.968 92.0253 165.261 92.9681L152.298 108.288L146.641 104.399C145.816 103.81 144.873 103.574 144.048 103.81C143.105 103.928 142.28 104.517 141.809 105.224L131.203 120.073C130.495 121.134 130.378 122.548 130.967 123.727C131.556 124.905 132.735 125.612 134.149 125.612H184.942C186.238 125.612 187.417 124.905 188.006 123.727C188.595 122.548 188.595 121.252 187.888 120.191L170.918 93.3216Z" fill="#E9E9F7"/>
</svg>
